<svg width="139" height="30" fill="none" xmlns="http://www.w3.org/2000/svg"><path d="M20.067 24.37h-9.861l-1.357 4.626H0L10.53.978h9.442l10.53 28.018h-9.059l-1.376-4.625zm-1.815-6.058L15.156 8.24l-3.077 10.072h6.173zM33.293.978h8.657v21.118h13.512v6.9h-22.17V.978zM59.17.978h7.779v5.294H59.17V.978zm0 7.721h7.779v20.297H59.17V8.699zM89.672 24.37h-9.861l-1.357 4.626h-8.849L80.135.978h9.442l10.531 28.018h-9.06l-1.376-4.625zm-1.815-6.058L84.76 8.24l-3.077 10.072h6.173zM101.388 19.727l8.237-.517c.179 1.338.542 2.358 1.09 3.058.891 1.134 2.166 1.701 3.822 1.701 1.236 0 2.185-.286 2.848-.86.675-.586 1.012-1.261 1.012-2.026 0-.726-.318-1.376-.955-1.949-.637-.573-2.115-1.115-4.434-1.625-3.797-.853-6.504-1.987-8.123-3.401-1.63-1.415-2.446-3.218-2.446-5.409 0-1.44.414-2.797 1.242-4.07.841-1.288 2.096-2.294 3.765-3.02 1.682-.74 3.982-1.109 6.9-1.109 3.58 0 6.307.669 8.18 2.007 1.885 1.325 3.007 3.44 3.363 6.345l-8.16.478c-.217-1.262-.676-2.18-1.376-2.752-.688-.574-1.644-.86-2.867-.86-1.007 0-1.765.216-2.275.65-.509.42-.764.936-.764 1.547 0 .446.21.848.631 1.204.407.37 1.376.714 2.905 1.033 3.784.815 6.491 1.643 8.122 2.484 1.644.828 2.835 1.86 3.574 3.096.752 1.236 1.128 2.618 1.128 4.147a8.882 8.882 0 0 1-1.491 4.97c-.994 1.516-2.383 2.669-4.166 3.459-1.784.777-4.033 1.166-6.747 1.166-4.765 0-8.065-.918-9.9-2.753-1.835-1.834-2.873-4.166-3.115-6.994zM130.686 21.198H139v7.798h-8.314v-7.798z" fill="#fff"/></svg>